<svg width="300" height="88" viewBox="0 0 300 88" fill="none" xmlns="http://www.w3.org/2000/svg">
<g clip-path="url(#clip0_392_405)">
<path d="M302 88.31H-2V0H302V88.31Z" fill="#BF2235"/>
<path d="M187.52 21.27C193.21 19.03 196.46 16.01 201.03 14.23C205.6 12.44 208.95 12.25 211.67 13.56C213.95 14.66 215.98 18.38 215.98 21.4V23.08C215.98 23.52 216.01 23.98 216.48 24.75C217.1 25.73 218.43 27.79 218.87 28.49C219.37 29.27 219.12 29.51 218.69 29.72C218.32 29.88 218.18 29.92 217.93 30.03C217.67 30.15 217.48 30.42 217.48 30.99V35.42C217.48 36.59 216.31 37.44 214.98 37.44C214.18 37.44 211.2 37.33 208.78 37.15C208.78 37.15 211.2 40.66 211.9 41.59C212.59 42.52 214.28 43.54 215.77 43.54H264.59L264.31 42.92C264.31 42.92 220.87 38.31 220.37 38.26C219.85 38.21 219.54 38.16 220.08 37.44C226.3 29.91 222.89 2.42005 194.37 10.16C191.9 10.83 182.36 14.72 180.17 15.82C177.99 16.91 174.19 18.2 169.43 18.2C170.16 22.96 178.18 24.94 187.51 21.27" fill="white"/>
<path d="M196.22 40.2C190.57 41.13 184.58 43.35 181.08 44.87L183.83 47.55C184.82 48.12 186.97 47.98 187.8 47.82C189.12 47.55 203.8 45.67 205.48 45.7C204.42 44.62 201.92 42.09 201.43 41.57C200.26 40.34 199.06 39.73 196.21 40.2" fill="white"/>
<path d="M127.98 73.0601C127.98 73.0601 131 76.0001 132.06 77.0801C133.52 78.5301 134.52 78.5801 136.97 77.5101C170.95 61.9001 245.02 49.3301 285.9 47.0301L285.51 46.1601C261.92 45.6201 174.35 53.3501 127.98 73.0601" fill="white"/>
<path d="M29.9502 22.8L24.0602 22.83H22.4702L16.8902 22.8L15.7102 22.77H15.2202L14.2202 28.92L14.9102 28.9C15.8102 28.87 16.1902 28.85 16.5602 28.52C16.8902 28.29 17.0902 27.9 17.3702 27.21L17.7602 26.22C17.8202 26.07 17.9702 25.67 18.0402 25.58C18.0602 25.58 18.0902 25.57 18.0902 25.57C18.5302 25.5 19.5702 25.47 20.9602 25.46C20.8202 26.58 19.6202 36.37 19.6202 36.37C19.2502 39.26 18.9802 40.26 18.2602 41.44L17.7202 42.32L19.9202 42.26H20.1402L23.0802 42.29H23.2702C24.1502 42.29 24.6102 42.24 25.0602 41.72C25.3702 41.41 25.5202 41.15 25.8002 40.49L26.1002 39.73H24.5502C24.0102 39.75 23.6202 39.75 23.3202 39.73C23.4002 39.38 23.5102 38.93 23.5102 38.93C23.6902 38.14 23.9502 36.55 24.0702 35.41C24.0702 35.41 25.0402 27.51 25.3002 25.45C26.7402 25.47 28.0502 25.49 28.4502 25.57C28.5002 25.9 28.5602 26.83 28.6002 27.62L28.7102 28.94L29.2402 28.92C30.6602 28.88 31.1802 28.42 31.3702 27.03L32.0002 22.79H31.3402L29.9302 22.83L29.9502 22.8Z" fill="white"/>
<path d="M54.8103 39.66C54.8903 39.31 54.9603 38.96 54.9603 38.96L55.1503 37.68L55.5603 34.92L56.1503 30.23L56.7503 25.81C56.7503 25.79 57.0003 24.2 57.0003 24.18C57.0003 24.15 57.0303 24.06 57.0303 24.06L57.3703 22.77H56.6103L55.2103 22.8L53.6303 22.84H52.8903L52.0303 22.87C51.6803 22.92 51.3503 23.08 51.0603 23.37C50.7603 23.72 50.6003 24.01 50.3703 24.64L50.0903 25.43L51.6503 25.35C51.6503 25.35 52.2203 25.39 52.7103 25.42C52.6503 25.79 52.5603 26.16 52.5603 26.16L52.3103 28.17L52.2803 28.38C52.2803 28.38 52.0603 30.1 51.9503 30.96H44.8103C44.8603 30.59 44.9003 30.23 44.9003 30.23C44.9003 30.24 45.1903 28.04 45.1903 28.04L45.4903 25.79L45.7603 24.23C45.7703 24.16 45.9003 23.49 45.9003 23.49L46.0403 22.8L45.3403 22.77L43.9603 22.8L42.3503 22.84H41.6103C40.7303 22.84 40.3003 22.89 39.8103 23.37C39.5203 23.7 39.3603 23.97 39.0903 24.62L38.7503 25.43L40.3503 25.35C40.3503 25.35 40.9403 25.39 41.4303 25.42C41.2803 26.18 41.1303 27.11 40.9803 28.37L39.9503 36.61C39.8203 37.88 39.6003 39.06 39.4303 39.73L38.9003 41.2C38.8803 41.26 38.7803 41.54 38.7803 41.54L38.5303 42.29L40.4703 42.24H40.7203L43.1303 42.27H43.3603C44.1903 42.27 44.6703 42.18 45.1203 41.68C45.4103 41.43 45.5803 41.16 45.8603 40.47L46.1603 39.71H44.7403C44.7403 39.71 44.1003 39.68 43.5703 39.65C43.6503 39.3 43.7203 38.95 43.7203 38.95L43.9103 37.67L44.3103 34.91C44.3103 34.91 44.4003 34.19 44.4703 33.67H51.5903C51.4803 34.52 51.2303 36.59 51.2303 36.59C51.0803 37.7 50.8603 38.91 50.6703 39.69C50.5303 40.26 50.3803 40.67 50.1403 41.18C50.1203 41.24 50.0303 41.52 50.0303 41.52L49.7703 42.27L51.7203 42.22H51.9603L54.4003 42.25H54.6003C55.4303 42.25 55.9103 42.16 56.3603 41.66C56.6503 41.42 56.8203 41.14 57.0903 40.45L57.4003 39.69H55.9703C55.9703 39.69 55.3403 39.66 54.8103 39.63" fill="white"/>
<path d="M72.1701 32.39C72.6301 31.41 73.8201 28.92 74.6601 27.16C74.8001 28.14 74.9501 29.28 74.9501 29.28C74.9501 29.27 75.3901 31.96 75.3901 31.96V32.03C75.3901 32.03 75.4501 32.23 75.4701 32.4H72.1601L72.1701 32.39ZM81.1801 39.65C81.0201 38.82 77.8801 22.76 77.8801 22.76H77.4001L75.9801 22.8L73.3501 22.83C72.4501 22.83 72.1301 22.86 71.7501 23.04C71.3201 23.19 70.9201 23.58 70.4901 24.33C70.4601 24.4 70.3601 24.61 70.3601 24.61L70.0101 25.42C70.0101 25.42 71.7601 25.36 72.3601 25.34C71.6101 26.76 67.1201 35.42 67.1201 35.42C67.1101 35.45 66.4401 36.72 66.4401 36.72L65.0301 39.35L64.2001 40.76L63.1401 42.25L64.2201 42.28L65.9201 42.25L67.7401 42.28L67.8701 41.85C68.0201 41.29 68.1801 40.86 68.7201 39.69L70.6001 35.66C70.6001 35.66 70.7701 35.29 70.8901 35.01H75.9201C76.0301 35.58 76.2401 36.75 76.2401 36.75C76.6201 38.86 76.8001 40.2 76.8001 40.94L76.7501 42.27H77.3601L78.4901 42.25H78.7101L80.6101 42.28H80.8101C81.6401 42.28 82.1501 42.18 82.6001 41.68C82.8901 41.43 83.0601 41.16 83.3301 40.48L83.6401 39.72H82.3801C82.3801 39.72 81.4701 39.66 81.1701 39.65" fill="white"/>
<path d="M102.97 36.4699C102.68 36.7099 102.49 37.0799 102.18 37.7699C102.18 37.7499 101.75 38.6899 101.75 38.6899C101.52 39.1899 101.43 39.3299 101.4 39.3499C101.24 39.4499 100.58 39.4999 99.4304 39.4999C99.4304 39.4999 97.3004 39.4399 97.2504 39.4399C97.5004 38.2499 97.7804 36.6199 97.9804 34.9799L98.5504 30.2199L99.1604 25.8499L99.3404 24.9399C99.3504 24.8799 99.5604 23.6699 99.5604 23.6699L99.4104 23.9199L100.1 22.6799L99.1104 22.7799H97.7004L95.7204 22.8099H94.8604L94.0004 22.8399C93.6504 22.8799 93.3104 23.0499 93.0204 23.3399C92.7304 23.6699 92.5704 23.9399 92.3004 24.5799L91.9604 25.3899L93.5704 25.3099C93.5704 25.3099 94.2604 25.3699 94.7904 25.3999C94.6404 26.1899 94.5004 27.1599 94.3604 28.3299L93.3304 36.5699C93.1404 38.0799 92.9004 39.4199 92.6604 40.2299L92.1904 41.4599L91.8804 42.2399H92.7404L95.1404 42.1399L95.3704 42.1699C95.4304 42.1699 103.71 42.2299 103.71 42.2299H104.16L105.35 36.0799H104.68C103.78 36.0799 103.36 36.0799 102.98 36.4299" fill="white"/>
<path d="M130.85 23.72L131.83 22.74L130.43 22.77L128.89 22.8L126.76 22.76L126.61 23.14C126.4 23.73 126.19 24.15 125.56 25.2L123.32 29.01C123.32 29.01 122.63 30.14 122.1 31.01C121.86 30.35 121.62 29.68 121.62 29.68L121.12 28.33C120.43 26.45 119.86 24.81 119.59 23.94C119.59 23.92 119.42 23.21 119.42 23.21L119.32 22.77L118.84 22.75L117.43 22.78L116.28 22.82H115.7L114.87 22.85C114.48 22.9 114.13 23.06 113.87 23.37C113.56 23.68 113.4 23.99 113.15 24.58L112.81 25.4L114.36 25.32C114.36 25.32 114.99 25.4 115.35 25.42C115.58 26 118.83 34.09 118.93 34.34C118.9 34.59 118.66 36.58 118.66 36.58C118.48 38.08 118.24 39.42 118 40.24C118 40.27 117.56 41.46 117.56 41.46L117.27 42.22L118.09 42.24L119.22 42.21H119.47L121.95 42.24H122.14C122.97 42.24 123.45 42.15 123.9 41.65C124.19 41.39 124.36 41.13 124.63 40.45L124.93 39.69H123.48C123.48 39.69 122.82 39.66 122.29 39.63C122.36 39.28 122.43 38.93 122.43 38.93C122.43 38.94 122.71 37.44 122.71 37.44L122.89 36.43L123.05 35.45C123.05 35.45 123.17 34.73 123.22 34.48C123.35 34.28 126.79 29.25 126.79 29.25C126.79 29.27 127.63 28.07 127.63 28.07L129.42 25.56C130.35 24.22 130.43 24.12 130.86 23.69" fill="white"/>
<path d="M143.72 42.5599C148.48 42.5299 151.79 39.7899 151.79 35.9299C151.83 33.8399 150.92 32.5699 148.43 31.2399L147.83 30.9199L144.92 29.3399C144.53 29.1399 144.14 28.8599 143.81 28.5699C143.37 28.1999 143.24 27.9199 143.24 27.3599C143.24 26.0599 144.45 25.2199 146.32 25.2199C147.22 25.2199 148.14 25.3899 148.92 25.6999C148.92 25.6999 148.96 25.7199 148.99 25.7399C149.04 26.0099 149.14 26.7999 149.21 28.5299L149.23 29.0899L149.79 29.0699C151.25 28.9899 151.75 28.5499 151.95 27.1399L152.45 23.5599L152.02 23.3999C150.22 22.7499 148.44 22.4299 146.6 22.4299C144.51 22.4299 142.74 22.9999 141.47 24.0999C140.18 25.1999 139.29 26.9899 139.29 28.5599C139.29 29.8399 139.82 30.9799 140.75 31.7699C141.28 32.2099 141.76 32.4999 142.73 33.0099C142.73 32.9999 145.56 34.5699 145.56 34.5699C146.32 34.9399 146.57 35.1199 146.93 35.3999C147.44 35.8299 147.72 36.4499 147.72 37.1499C147.72 39.3599 145.42 39.5999 144.43 39.5999L142.79 39.4499C141.98 39.2399 141.72 39.1299 141.64 39.0999C141.54 38.8299 141.48 37.7399 141.44 37.0499L141.41 36.3099L141.39 35.7699H140.86C139.42 35.7699 138.89 36.2299 138.7 37.6599C138.7 37.6399 138.2 40.9399 138.2 40.9399L138.13 41.3899L138.56 41.5499C140.47 42.2699 141.96 42.5599 143.71 42.5599" fill="white"/>
<path d="M15.3604 47.6299H21.1904V48.4599H16.2704V51.2099H20.6704V52.0399H16.2704V54.8599H21.2504V55.6899H15.3604V47.6299V47.6299Z" fill="white"/>
<path d="M24.1104 52.3199V47.6299H25.0204V52.2599C25.0204 53.9999 25.9404 54.9799 27.4904 54.9799C29.0404 54.9799 29.9204 54.0799 29.9204 52.3199V47.6299H30.8304V52.2499C30.8304 54.5999 29.4804 55.8199 27.4704 55.8199C25.4604 55.8199 24.1204 54.5999 24.1204 52.3199H24.1104Z" fill="white"/>
<path d="M34.1304 47.6299H37.6004C38.5904 47.6299 39.3904 47.9299 39.8904 48.4399C40.2804 48.8299 40.5104 49.3999 40.5104 50.0299V50.0499C40.5104 51.3899 39.5904 52.1699 38.3204 52.3999L40.8004 55.6899H39.6804L37.3404 52.5599H35.0404V55.6899H34.1304V47.6299V47.6299ZM37.5204 51.7399C38.7304 51.7399 39.5904 51.1199 39.5904 50.0799V50.0599C39.5904 49.0699 38.8304 48.4699 37.5304 48.4699H35.0404V51.7399H37.5204V51.7399Z" fill="white"/>
<path d="M43.2505 51.69V51.67C43.2505 49.45 44.9205 47.5 47.3705 47.5C49.8205 47.5 51.4705 49.42 51.4705 51.65V51.67C51.4705 53.89 49.8005 55.84 47.3505 55.84C44.9005 55.84 43.2505 53.92 43.2505 51.69ZM50.5305 51.69V51.67C50.5305 49.84 49.1905 48.34 47.3505 48.34C45.5105 48.34 44.1905 49.81 44.1905 51.65V51.67C44.1905 53.5 45.5305 55 47.3705 55C49.2105 55 50.5305 53.53 50.5305 51.69Z" fill="white"/>
<path d="M53.9604 54.52L54.5205 53.85C55.3605 54.61 56.1705 54.99 57.2905 54.99C58.4105 54.99 59.0905 54.41 59.0905 53.62V53.6C59.0905 52.85 58.6905 52.43 56.9905 52.07C55.1405 51.67 54.2804 51.07 54.2804 49.74V49.72C54.2804 48.45 55.4005 47.52 56.9305 47.52C58.1005 47.52 58.9504 47.85 59.7604 48.51L59.2304 49.21C58.4804 48.6 57.7305 48.33 56.9005 48.33C55.8505 48.33 55.1805 48.91 55.1805 49.63V49.65C55.1805 50.41 55.5904 50.84 57.3704 51.22C59.1704 51.61 60.0005 52.27 60.0005 53.5V53.52C60.0005 54.9 58.8505 55.8 57.2505 55.8C55.9705 55.8 54.9204 55.37 53.9604 54.51V54.52Z" fill="white"/>
<path d="M64.9803 48.4699H62.2603V47.6299H68.6103V48.4699H65.8903V55.6899H64.9803V48.4699Z" fill="white"/>
<path d="M73.4102 47.5701H74.2602L77.9302 55.6901H76.9502L76.0002 53.5601H71.6102L70.6502 55.6901H69.7202L73.3902 47.5701H73.4102ZM75.6602 52.7401L73.8302 48.6301L71.9902 52.7401H75.6702H75.6602Z" fill="white"/>
<path d="M80.6802 47.6299H84.1502C85.1402 47.6299 85.9402 47.9299 86.4402 48.4399C86.8302 48.8299 87.0602 49.3999 87.0602 50.0299V50.0499C87.0602 51.3899 86.1402 52.1699 84.8702 52.3999L87.3502 55.6899H86.2302L83.8902 52.5599H81.5902V55.6899H80.6802V47.6299V47.6299ZM84.0702 51.7399C85.2802 51.7399 86.1402 51.1199 86.1402 50.0799V50.0599C86.1402 49.0699 85.3802 48.4699 84.0802 48.4699H81.5902V51.7399H84.0702Z" fill="white"/>
<path d="M94.4102 51.69V51.67C94.4102 49.46 96.0301 47.5 98.4501 47.5C99.8101 47.5 100.65 47.89 101.46 48.57L100.87 49.26C100.25 48.72 99.5602 48.34 98.4202 48.34C96.6302 48.34 95.3602 49.85 95.3602 51.65V51.67C95.3602 53.59 96.5902 55.02 98.5502 55.02C99.4702 55.02 100.32 54.66 100.88 54.21V52.21H98.4302V51.39H101.76V54.6C101.01 55.27 99.8801 55.83 98.5201 55.83C95.9901 55.83 94.4202 53.99 94.4202 51.68L94.4102 51.69Z" fill="white"/>
<path d="M104.95 47.6299H108.42C109.41 47.6299 110.21 47.9299 110.71 48.4399C111.1 48.8299 111.33 49.3999 111.33 50.0299V50.0499C111.33 51.3899 110.41 52.1699 109.14 52.3999L111.62 55.6899H110.5L108.16 52.5599H105.86V55.6899H104.95V47.6299V47.6299ZM108.34 51.7399C109.55 51.7399 110.41 51.1199 110.41 50.0799V50.0599C110.41 49.0699 109.65 48.4699 108.35 48.4699H105.86V51.7399H108.34Z" fill="white"/>
<path d="M114.07 51.69V51.67C114.07 49.45 115.74 47.5 118.19 47.5C120.64 47.5 122.29 49.42 122.29 51.65V51.67C122.29 53.89 120.62 55.84 118.17 55.84C115.72 55.84 114.07 53.92 114.07 51.69ZM121.35 51.69V51.67C121.35 49.84 120.01 48.34 118.17 48.34C116.33 48.34 115.01 49.81 115.01 51.65V51.67C115.01 53.5 116.35 55 118.19 55C120.03 55 121.35 53.53 121.35 51.69Z" fill="white"/>
<path d="M125.25 52.3199V47.6299H126.16V52.2599C126.16 53.9999 127.08 54.9799 128.63 54.9799C130.18 54.9799 131.06 54.0799 131.06 52.3199V47.6299H131.97V52.2499C131.97 54.5999 130.62 55.8199 128.61 55.8199C126.6 55.8199 125.26 54.5999 125.26 52.3199H125.25Z" fill="white"/>
<path d="M135.271 47.6299H138.29C140.11 47.6299 141.311 48.5999 141.311 50.1899V50.2099C141.311 51.9499 139.861 52.8499 138.141 52.8499H136.18V55.6999H135.271V47.6399V47.6299ZM138.171 52.0199C139.511 52.0199 140.381 51.3099 140.381 50.2499V50.2299C140.381 49.0799 139.521 48.4799 138.211 48.4799H136.171V52.0299H138.161L138.171 52.0199Z" fill="white"/>
</g>
<defs>
<clipPath id="clip0_392_405">
<rect width="300" height="88" fill="white"/>
</clipPath>
</defs>
</svg>
